        <svg id="visual4" viewBox="10 50 960 440" width="2500" height="540" version="1.1"><g transform="translate(916.1008589045864 549.3965956020317)"><path d="M194.2 -326.9C262.4 -297 335.8 -266.6 344 -212.1C352.1 -157.5 295.1 -78.8 286.6 -4.9C278.2 69 318.4 138 312.5 196.6C306.7 255.2 254.8 303.4 195.1 322.9C135.3 342.4 67.7 333.2 6 322.8C-55.7 312.4 -111.3 300.8 -159.8 274.8C-208.3 248.8 -249.7 208.4 -297.2 160.2C-344.7 112 -398.3 56 -410.7 -7.2C-423.2 -70.3 -394.3 -140.7 -338.7 -174.8C-283 -208.9 -200.6 -206.7 -139.7 -240.9C-78.8 -275.1 -39.4 -345.5 11.8 -366C63 -386.5 126 -356.9 194.2 -326.9" fill="#BB004B"></path></g></svg>