        <svg id="visual1" viewBox="-800 10 2060 300" width="960" height="240" version="1.1"><g transform="translate(-5.04189033821504 8.439099634438449)"><path d="M90.2 -178.6C109.6 -144.9 113.3 -106.2 139.3 -75.6C165.3 -45 213.6 -22.5 213.6 0C213.6 22.5 165.3 45 134.1 66.7C102.9 88.3 89 109.1 69.5 136.9C50 164.6 25 199.3 -7.6 212.4C-40.2 225.6 -80.3 217.1 -101.6 190.4C-122.8 163.6 -125 118.6 -144.6 83.8C-164.2 49 -201.1 24.5 -203.4 -1.3C-205.7 -27.2 -173.4 -54.3 -147.5 -78.1C-121.6 -102 -102.1 -122.4 -78.5 -153.8C-55 -185.3 -27.5 -227.6 3.9 -234.4C35.3 -241.2 70.7 -212.4 90.2 -178.6" fill="#BB004B"></path></g></svg>