        <svg id="visual3" viewBox="0 0 960 540" width="1060" height="440" version="1.1"><g transform="translate(470.9110316396532 302.0872116329755)"><path d="M113.3 -199.6C146.7 -177.1 173.4 -146.3 182 -111.6C190.7 -77 181.4 -38.5 187 3.2C192.6 45 213.2 90 199.1 115.3C185.1 140.5 136.3 146 97.3 165C58.3 184 29.2 216.5 -4.6 224.5C-38.3 232.4 -76.7 215.8 -107.4 192C-138.2 168.3 -161.3 137.4 -178.1 104.2C-195 71 -205.5 35.5 -201.9 2.1C-198.3 -31.3 -180.5 -62.7 -155.8 -82.2C-131 -101.6 -99.3 -109.3 -72.1 -135.4C-45 -161.6 -22.5 -206.3 8.7 -221.5C40 -236.6 80 -222.2 113.3 -199.6" fill="#BB004B"></path></g></svg>