<svg id="visual" viewBox="0 0 900 600" width="900" height="600" xmlns="http://www.w3.org/2000/svg" xmlns:xlink="http://www.w3.org/1999/xlink" version="1.1"><rect x="0" y="0" width="900" height="600" fill="#ffffff"></rect><g transform="translate(430.7612613709746 264.7400212116996)"><path d="M67.9 -85.7C87.2 -93.3 101.3 -73 135.7 -47.4C170.1 -21.8 224.6 9.2 234.8 43.5C245 77.8 210.9 115.5 185.5 180.8C160.2 246.1 143.5 338.9 114 313.4C84.5 287.9 42.3 143.9 3.2 87.5C-35.8 31 -71.5 62 -87.7 64.3C-103.9 66.6 -100.4 40.3 -113.6 10.6C-126.8 -19.1 -156.7 -52.1 -177.5 -112.1C-198.4 -172 -210.3 -258.9 -179.2 -245.9C-148.1 -232.8 -74.1 -119.9 -24.9 -81.2C24.3 -42.5 48.7 -78 67.9 -85.7" fill="none" stroke="#BB004B" stroke-width="6"></path></g></svg>