<svg id="visual" viewBox="0 0 900 600" width="900" height="600" xmlns="http://www.w3.org/2000/svg" xmlns:xlink="http://www.w3.org/1999/xlink" version="1.1"><rect x="0" y="0" width="900" height="600" fill="#ffffff"></rect><g transform="translate(384.2738541839851 281.6761130377262)"><path d="M47.2 -76.7C94.3 -43.1 188.6 -86.1 262.8 -75.5C337.1 -64.8 391.2 -0.4 370.3 43.9C349.3 88.1 253.3 112.2 186.3 126.3C119.4 140.4 81.5 144.6 39.1 177C-3.3 209.5 -50.2 270.3 -101.1 283.2C-152 296.2 -206.7 261.4 -230.1 211.9C-253.5 162.4 -245.5 98.3 -209.8 56.9C-174.1 15.6 -110.7 -3 -86.3 -32.3C-61.8 -61.5 -76.3 -101.4 -68.4 -153C-60.6 -204.6 -30.3 -267.8 -15.1 -244.2C0 -220.7 0 -110.3 47.2 -76.7" fill="none" stroke="#BB004B" stroke-width="6"></path></g></svg>