        <svg id="visual2" viewBox="0 0 960 540" width="1860" height="540" version="1.1"><g transform="translate(1432.5712697819545 293.2215883904449)"><path d="M139.4 -246C170.2 -223.7 177.3 -165.1 185.3 -118.1C193.3 -71 202.2 -35.5 201.3 -0.5C200.4 34.5 189.8 69 178.2 109.7C166.5 150.4 153.8 197.3 123.9 208.2C94 219.1 47 193.9 4.8 185.5C-37.3 177.2 -74.7 185.6 -113.2 179.7C-151.7 173.8 -191.5 153.7 -229.1 121.3C-266.7 89 -302.1 44.5 -306.1 -2.3C-310.2 -49.2 -282.8 -98.3 -242.8 -126.5C-202.8 -154.6 -150.2 -161.7 -107.6 -177.2C-65 -192.6 -32.5 -216.3 10.9 -235.2C54.3 -254.1 108.7 -268.2 139.4 -246" fill="#BB004B"></path></g></svg>